<svg id="SvgjsSvg1000" xmlns="http://www.w3.org/2000/svg" version="1.1" xmlns:xlink="http://www.w3.org/1999/xlink" xmlns:svgjs="http://svgjs.com/svgjs" width="678.515625" height="526"><defs id="SvgjsDefs1001"><marker id="SvgjsMarker1043" markerWidth="14" markerHeight="10" refX="10" refY="5" viewBox="0 0 14 10" orient="auto" markerUnits="userSpaceOnUse" stroke-dasharray="0,0"><path id="SvgjsPath1044" d="M0 0L14 5L0 10L0 0 " fill="#8a5329" stroke="#8a5329" stroke-width="1"></path></marker><marker id="SvgjsMarker1047" markerWidth="14" markerHeight="10" refX="10" refY="5" viewBox="0 0 14 10" orient="auto" markerUnits="userSpaceOnUse" stroke-dasharray="0,0"><path id="SvgjsPath1048" d="M0 0L14 5L0 10L0 0 " fill="#8a5329" stroke="#8a5329" stroke-width="1"></path></marker><marker id="SvgjsMarker1051" markerWidth="14" markerHeight="10" refX="10" refY="5" viewBox="0 0 14 10" orient="auto" markerUnits="userSpaceOnUse" stroke-dasharray="0,0"><path id="SvgjsPath1052" d="M0 0L14 5L0 10L0 0 " fill="#8a5329" stroke="#8a5329" stroke-width="1"></path></marker><marker id="SvgjsMarker1055" markerWidth="14" markerHeight="10" refX="10" refY="5" viewBox="0 0 14 10" orient="auto" markerUnits="userSpaceOnUse" stroke-dasharray="0,0"><path id="SvgjsPath1056" d="M0 0L14 5L0 10L0 0 " fill="#8a5329" stroke="#8a5329" stroke-width="1"></path></marker><marker id="SvgjsMarker1065" markerWidth="14" markerHeight="10" refX="10" refY="5" viewBox="0 0 14 10" orient="auto" markerUnits="userSpaceOnUse" stroke-dasharray="0,0"><path id="SvgjsPath1066" d="M0 0L14 5L0 10L0 0 " fill="#8a5329" stroke="#8a5329" stroke-width="1"></path></marker><marker id="SvgjsMarker1081" markerWidth="14" markerHeight="10" refX="10" refY="5" viewBox="0 0 14 10" orient="auto" markerUnits="userSpaceOnUse" stroke-dasharray="0,0"><path id="SvgjsPath1082" d="M0 0L14 5L0 10L0 0 " fill="#8a5329" stroke="#8a5329" stroke-width="1"></path></marker><marker id="SvgjsMarker1085" markerWidth="14" markerHeight="10" refX="10" refY="5" viewBox="0 0 14 10" orient="auto" markerUnits="userSpaceOnUse" stroke-dasharray="0,0"><path id="SvgjsPath1086" d="M0 0L14 5L0 10L0 0 " fill="#8a5329" stroke="#8a5329" stroke-width="1"></path></marker></defs><g id="SvgjsG1007" transform="translate(25.004261363636317,25)"><path id="SvgjsPath1008" d="M0 4Q0 0 4 0L595.3863636363637 0Q599.3863636363637 0 599.3863636363637 4L599.3863636363637 472Q599.3863636363637 476 595.3863636363637 476L4 476Q0 476 0 472Z " stroke="rgba(255,255,255,1)" stroke-width="2" fill-opacity="1" fill="#ffffff"></path><g id="SvgjsG1009"><text id="SvgjsText1010" font-family="微软雅黑" text-anchor="middle" font-size="13px" width="580px" fill="#323232" font-weight="400" align="middle" lineHeight="125%" font-style="" opacity="1" y="227.375" transform="rotate(0)"></text></g></g><g id="SvgjsG1011" transform="translate(349.02698863636374,40.09090909090912)"><path id="SvgjsPath1012" d="M0 4Q0 0 4 0L176 0Q180 0 180 4L180 53Q180 57 176 57L4 57Q0 57 0 53Z " stroke="rgba(245,124,0,1)" stroke-width="3" fill-opacity="1" fill="#ffffff"></path><g id="SvgjsG1013"><text id="SvgjsText1014" font-family="黑体" text-anchor="middle" font-size="16px" width="160px" fill="#323232" font-weight="700" align="middle" lineHeight="125%" font-style="" opacity="1" y="14.5" transform="rotate(0)"><tspan id="SvgjsTspan1015" dy="20" x="90"><tspan id="SvgjsTspan1016" style="text-decoration:;">开源大模型</tspan></tspan></text></g></g><g id="SvgjsG1017" transform="translate(349.02698863636374,142.09090909090912)"><path id="SvgjsPath1018" d="M0 4Q0 0 4 0L176 0Q180 0 180 4L180 53Q180 57 176 57L4 57Q0 57 0 53Z " stroke="rgba(245,124,0,1)" stroke-width="3" fill-opacity="1" fill="#ffffff"></path><g id="SvgjsG1019"><text id="SvgjsText1020" font-family="黑体" text-anchor="middle" font-size="16px" width="160px" fill="#323232" font-weight="700" align="middle" lineHeight="125%" font-style="" opacity="1" y="14.5" transform="rotate(0)"><tspan id="SvgjsTspan1021" dy="20" x="90"><tspan id="SvgjsTspan1022" style="text-decoration:;">训练/微调</tspan></tspan></text></g></g><g id="SvgjsG1023" transform="translate(349.02698863636374,244.09090909090912)"><path id="SvgjsPath1024" d="M0 4Q0 0 4 0L176 0Q180 0 180 4L180 53Q180 57 176 57L4 57Q0 57 0 53Z " stroke="rgba(76,175,80,1)" stroke-width="3" fill-opacity="1" fill="#ffffff"></path><g id="SvgjsG1025"><text id="SvgjsText1026" font-family="黑体" text-anchor="middle" font-size="16px" width="160px" fill="#323232" font-weight="700" align="middle" lineHeight="125%" font-style="" opacity="1" y="14.5" transform="rotate(0)"><tspan id="SvgjsTspan1027" dy="20" x="90"><tspan id="SvgjsTspan1028" style="text-decoration:;">模型评估</tspan></tspan></text></g></g><g id="SvgjsG1029" transform="translate(103.02698863636374,142.09090909090912)"><path id="SvgjsPath1030" d="M0 4Q0 0 4 0L146.36363636363626 0Q150.36363636363626 0 150.36363636363626 4L150.36363636363626 53Q150.36363636363626 57 146.36363636363626 57L4 57Q0 57 0 53Z " stroke="rgba(0,0,0,1)" stroke-width="3" fill-opacity="1" fill="#ffffff"></path><g id="SvgjsG1031"><text id="SvgjsText1032" font-family="黑体" text-anchor="middle" font-size="16px" width="131px" fill="#323232" font-weight="700" align="middle" lineHeight="125%" font-style="" opacity="1" y="14.5" transform="rotate(0)"><tspan id="SvgjsTspan1033" dy="20" x="75.5"><tspan id="SvgjsTspan1034" style="text-decoration:;">私有数据集</tspan></tspan></text></g></g><g id="SvgjsG1035" transform="translate(88.20880681818187,244.09090909090912)"><path id="SvgjsPath1036" d="M0 4Q0 0 4 0L176 0Q180 0 180 4L180 53Q180 57 176 57L4 57Q0 57 0 53Z " stroke="rgba(33,150,243,1)" stroke-width="3" fill-opacity="1" fill="#ffffff"></path><g id="SvgjsG1037"><text id="SvgjsText1038" font-family="黑体" text-anchor="middle" font-size="16px" width="160px" fill="#323232" font-weight="700" align="middle" lineHeight="125%" font-style="" opacity="1" y="14.5" transform="rotate(0)"><tspan id="SvgjsTspan1039" dy="20" x="90"><tspan id="SvgjsTspan1040" style="text-decoration:;">部署大模型</tspan></tspan></text></g></g><g id="SvgjsG1041"><path id="SvgjsPath1042" d="M439.02698863636374 98.59090909090912L439.02698863636374 119.59090909090912L439.02698863636374 119.59090909090912L439.02698863636374 137.99090909090913 " stroke="#8a5329" stroke-width="2" fill="none" marker-end="url(#SvgjsMarker1043)"></path></g><g id="SvgjsG1045"><path id="SvgjsPath1046" d="M530.5269886363637 170.59090909090912L559.0269886363637 170.59090909090912L559.0269886363637 272.5909090909091L533.1269886363638 272.5909090909091 " stroke="#8a5329" stroke-width="2" fill="none" marker-end="url(#SvgjsMarker1047)"></path></g><g id="SvgjsG1049"><path id="SvgjsPath1050" d="M254.890625 170.59090909090912L301.20880681818187 170.59090909090912L301.20880681818187 170.59090909090912L344.9269886363637 170.59090909090912 " stroke="#8a5329" stroke-width="2" fill="none" marker-end="url(#SvgjsMarker1051)"></path></g><g id="SvgjsG1053"><path id="SvgjsPath1054" d="M347.52698863636374 272.5909090909091L308.6178977272728 272.5909090909091L308.6178977272728 272.5909090909091L272.3088068181819 272.5909090909091 " stroke="#8a5329" stroke-width="2" fill="none" marker-end="url(#SvgjsMarker1055)"></path></g><g id="SvgjsG1057" transform="translate(405.02698863636374,398.6363636363637)"><path id="SvgjsPath1058" d="M0 4Q0 0 4 0L176 0Q180 0 180 4L180 53Q180 57 176 57L4 57Q0 57 0 53Z " stroke="rgba(123,31,162,1)" stroke-width="3" fill-opacity="1" fill="#ffffff"></path><g id="SvgjsG1059"><text id="SvgjsText1060" font-family="黑体" text-anchor="middle" font-size="16px" width="160px" fill="#323232" font-weight="700" align="middle" lineHeight="125%" font-style="" opacity="1" y="14.5" transform="rotate(0)"><tspan id="SvgjsTspan1061" dy="20" x="90"><tspan id="SvgjsTspan1062" style="text-decoration:;">离线推理</tspan></tspan></text></g></g><g id="SvgjsG1063"><path id="SvgjsPath1064" d="M267.89443030190824 289.91284425725235L335.71070946913596 289.91284425725235L335.71070946913596 427.1363636363637L400.9269886363637 427.1363636363637 " stroke="#8a5329" stroke-width="2" fill="none" marker-end="url(#SvgjsMarker1065)"></path></g><g id="SvgjsG1067" transform="translate(50.02698863636374,398.0909090909091)"><path id="SvgjsPath1068" d="M0 4Q0 0 4 0L116.36363636363626 0Q120.36363636363626 0 120.36363636363626 4L120.36363636363626 54.09090909090912Q120.36363636363626 58.09090909090912 116.36363636363626 58.09090909090912L4 58.09090909090912Q0 58.09090909090912 0 54.09090909090912Z " stroke="rgba(207,52,132,1)" stroke-width="3" fill-opacity="1" fill="#ffffff"></path><g id="SvgjsG1069"><text id="SvgjsText1070" font-family="黑体" text-anchor="middle" font-size="16px" width="101px" fill="#323232" font-weight="700" align="middle" lineHeight="125%" font-style="" opacity="1" y="15.045454545454561" transform="rotate(0)"><tspan id="SvgjsTspan1071" dy="20" x="60.5"><tspan id="SvgjsTspan1072" style="text-decoration:;">向量数据库</tspan></tspan></text></g></g><g id="SvgjsG1073" transform="translate(184.02698863636374,400.0909090909091)"><path id="SvgjsPath1074" d="M0 4Q0 0 4 0L120.36363636363626 0Q124.36363636363626 0 124.36363636363626 4L124.36363636363626 50.09090909090912Q124.36363636363626 54.09090909090912 120.36363636363626 54.09090909090912L4 54.09090909090912Q0 54.09090909090912 0 50.09090909090912Z " stroke="rgba(207,52,132,1)" stroke-width="3" fill-opacity="1" fill="#ffffff"></path><g id="SvgjsG1075"><text id="SvgjsText1076" font-family="黑体" text-anchor="middle" font-size="16px" width="105px" fill="#323232" font-weight="700" align="middle" lineHeight="125%" font-style="" opacity="1" y="13.045454545454561" transform="rotate(0)"><tspan id="SvgjsTspan1077" dy="20" x="62.5"><tspan id="SvgjsTspan1078" style="text-decoration:;">Prompts 模板</tspan></tspan></text></g></g><g id="SvgjsG1079"><path id="SvgjsPath1080" d="M132.390625 397.5L132.390625 350L132.390625 350L132.390625 305.1 " stroke="#8a5329" stroke-width="2" fill="none" marker-end="url(#SvgjsMarker1081)"></path></g><g id="SvgjsG1083"><path id="SvgjsPath1084" d="M232.390625 399.5L232.390625 350.5L232.390625 350.5L232.390625 304.1 " stroke="#8a5329" stroke-width="2" fill="none" marker-end="url(#SvgjsMarker1085)"></path></g><g id="SvgjsG1087" transform="translate(64.02698863636374,61.59090909090912)"><path id="SvgjsPath1088" d="M0 0L120 0L120 40L0 40Z " stroke="none" fill="none"></path><g id="SvgjsG1089"><text id="SvgjsText1090" font-family="微软雅黑" text-anchor="middle" font-size="20px" width="120px" fill="#323232" font-weight="700" align="middle" lineHeight="125%" font-style="" opacity="1" y="2" transform="rotate(0)"><tspan id="SvgjsTspan1091" dy="25" x="60"><tspan id="SvgjsTspan1092" style="text-decoration:;">LLM Ops</tspan></tspan></text></g></g><g id="SvgjsG1093" transform="translate(118.20880681818187,455.63636363636374)"><path id="SvgjsPath1094" d="M0 0L120 0L120 40L0 40Z " stroke="none" fill="none"></path><g id="SvgjsG1095"><text id="SvgjsText1096" font-family="微软雅黑" text-anchor="middle" font-size="20px" width="120px" fill="#323232" font-weight="700" align="middle" lineHeight="125%" font-style="" opacity="1" y="2" transform="rotate(0)"><tspan id="SvgjsTspan1097" dy="25" x="60"><tspan id="SvgjsTspan1098" style="text-decoration:;">...</tspan></tspan></text></g></g><g id="SvgjsG1099" transform="translate(405.02698863636374,342.0909090909091)"><path id="SvgjsPath1100" d="M0 0L175.36363636363626 0L175.36363636363626 34.59090909090912L0 34.59090909090912Z " stroke="none" fill="none"></path><g id="SvgjsG1101"><text id="SvgjsText1102" font-family="黑体" text-anchor="middle" font-size="16px" width="176px" fill="#323232" font-weight="400" align="middle" lineHeight="125%" font-style="" opacity="1" y="-6.704545454545439" transform="rotate(0)"><tspan id="SvgjsTspan1103" dy="20" x="88"><tspan id="SvgjsTspan1104" style="text-decoration:;">所有数据均在本地，保护</tspan></tspan><tspan id="SvgjsTspan1105" dy="20" x="88"><tspan id="SvgjsTspan1106" style="text-decoration:;">数据安全和用户隐私</tspan></tspan></text></g></g></svg>