<svg xmlns="http://www.w3.org/2000/svg" xmlns:xlink="http://www.w3.org/1999/xlink" width="354" height="353" viewBox="0 0 354 353" fill="none"><g opacity="1"  transform="translate(0 0)  rotate(0)"><g opacity="1"  transform="translate(0 0)  rotate(0)"><rect fill="#FFFFFF" opacity="1" transform="translate(0 0)  rotate(0)" x="0" y="0" width="354" height="353" rx="25" /><mask id="bg-mask-0" fill="white"><use xlink:href="#path_0"></use></mask><g mask="url(#bg-mask-0)" ></g></g><path id="路径 2" fill-rule="evenodd" style="fill:#3A66F3" opacity="1" d="M127,121.5v-23.5c0,-2.76 2.24,-5 5,-5h44c2.76,0 5,2.24 5,5v23.5c0,2.76 -2.24,5 -5,5h-44c-2.76,0 -5,-2.24 -5,-5zM127,232v-81c0,-2.76 2.24,-5 5,-5h44c2.76,0 5,2.24 5,5v109.73c0,2.87 -2.4,5.15 -5.26,5l-105,-5.48c-2.66,-0.14 -4.74,-2.34 -4.74,-5v-44.25c0,-2.76 2.24,-5 5,-5h24.5c2.76,0 5,2.24 5,5v21c0,2.76 2.24,5 5,5h16.5c2.76,0 5,-2.24 5,-5zM212,261v-110c0,-2.76 2.24,-5 5,-5h42.5c2.76,0 5,2.24 5,5v110c0,2.76 -2.24,5 -5,5h-42.5c-2.76,0 -5,-2.24 -5,-5z"></path><path id="矩形 3" fill-rule="evenodd" style="fill:#FFA92A" opacity="1" d="M216 127L260 127C262.76 127 265 124.76 265 122L265 98C265 95.24 262.76 93 260 93L216 93C213.24 93 211 95.24 211 98L211 122C211 124.76 213.24 127 216 127Z"></path></g><defs><rect id="path_0" x="0" y="0" width="354" height="353" /></defs></svg>